<?xml version="1.0" encoding="utf-8"?>
<!DOCTYPE svg PUBLIC "-//W3C//DTD SVG 1.1//EN" "http://www.w3.org/Graphics/SVG/1.1/DTD/svg11.dtd">
<svg version="1.1" xmlns="http://www.w3.org/2000/svg" xmlns:xlink="http://www.w3.org/1999/xlink" x="0px" y="0px" viewBox="0 0 1000 1000" enable-background="new 0 0 1000 1000" xml:space="preserve">
<g><g transform="translate(0.000000,511.000000) scale(0.100000,-0.100000)"><path d="M3152.2,4978.8c-29-18.7-448.1-504.1-933.5-1078.7c-485.4-574.6-887.9-1045.5-894.1-1045.5c-8.3,0-147.3,145.2-311.2,321.5c-363,392.1-431.5,427.3-582.9,284.2c-45.6-41.5-58.1-72.6-58.1-141.1c0-103.7,0-105.8,400.4-537.3c446-481.3,454.3-487.5,553.9-487.5c72.6,0,99.6,12.5,176.3,89.2c166,161.8,1960.4,2300.6,1972.9,2352.5c20.7,83-18.7,178.4-93.3,228.2C3299.5,5020.3,3224.8,5024.5,3152.2,4978.8z"/><path d="M4011.1,4018.3c-91.3-56-124.5-159.7-85.1-257.2c64.3-151.4-176.3-139,2848.3-139H9496l64.3,64.3c70.5,70.5,85,159.7,39.4,257.2c-53.9,120.3,95.4,114.1-2831.7,114.1C4150.1,4057.7,4073.3,4055.7,4011.1,4018.3z"/><path d="M471.9,1369.2c-31.1-16.6-66.4-47.7-78.8-70.5c-29-53.9-29-2394,0-2450c56-101.7,62.2-101.7,1300.7-101.7c1109.9,0,1159.7,2.1,1224,41.5c43.6,27,72.6,64.3,87.1,118.3c31.1,107.9,31.1,2228,0,2335.9c-14.5,53.9-43.6,91.3-87.1,118.2c-64.3,39.4-114.1,41.5-1228.1,41.5C704.3,1400.3,519.7,1396.2,471.9,1369.2z M2571.3,74.7v-892h-881.7H808v892v892h881.7h881.7V74.7z"/><path d="M3996.5,468.9c-78.8-62.2-107.9-166-68.5-255.2c62.2-149.4-143.2-139,2856.6-139h2698.9l70.5,70.5c95.4,95.4,99.6,215.8,10.4,305l-60.1,60.2h-2728C4073.3,510.3,4048.4,510.3,3996.5,468.9z"/><path d="M432.5-2205.2l-60.2-60.2v-1194.9v-1194.9l60.2-66.4l60.1-68.4h1194.9h1194.9l66.4,68.4l68.5,66.4l6.2,1136.8c4.2,769.6,0,1159.7-16.6,1211.5c-12.4,41.5-45.6,95.4-76.8,118.2c-51.9,43.6-74.7,43.6-1244.7,43.6H492.7L432.5-2205.2z M2571.3-3462.3V-4344h-881.7H808v881.7v881.7h881.7h881.7V-3462.3z"/><path d="M4029.7-3049.5c-60.1-31.1-130.7-134.9-130.7-195c0-14.5,14.5-56,33.2-93.3c68.5-143.2-118.2-134.8,2827.5-134.8c2864.9,0,2752.9-4.2,2831.7,105.8c41.5,62.2,43.6,182.6,0,242.7c-78.8,114.1,70.5,107.9-2823.4,107.9C4384.5-3016.3,4089.9-3020.5,4029.7-3049.5z"/></g></g>
</svg>
